<?xml version="1.0" standalone="no"?>
<!DOCTYPE svg PUBLIC "-//W3C//DTD SVG 20010904//EN"
 "http://www.w3.org/TR/2001/REC-SVG-20010904/DTD/svg10.dtd">
<svg version="1.0" xmlns="http://www.w3.org/2000/svg"
 width="512.000000pt" height="512.000000pt" viewBox="0 0 512.000000 512.000000"
 preserveAspectRatio="xMidYMid meet">

<g transform="translate(0.000000,512.000000) scale(0.100000,-0.100000)"
fill="#000000" stroke="none">
<path d="M3530 5105 c-30 -9 -73 -27 -95 -40 -22 -13 -549 -534 -1171 -1157
-1286 -1288 -1179 -1166 -1179 -1348 0 -182 -107 -60 1179 -1348 622 -623
1150 -1144 1173 -1157 107 -64 253 -70 368 -16 90 41 148 99 193 189 35 73 37
81 37 176 0 187 83 90 -1019 1193 l-961 963 961 963 c912 913 962 965 989
1027 114 260 -62 551 -343 566 -50 3 -96 -1 -132 -11z"/>
</g>
</svg>
